<svg id="user" xmlns="http://www.w3.org/2000/svg" width="11.795" height="16.513" viewBox="0 0 11.795 16.513">
  <path id="Path_10813" data-name="Path 10813" d="M14.253,3.43A2.949,2.949,0,1,1,11.3,6.378,2.949,2.949,0,0,1,14.253,3.43m0-1.18a4.128,4.128,0,1,0,4.128,4.128A4.128,4.128,0,0,0,14.253,2.25Z" transform="translate(-8.356 -2.25)" fill="#1e73be"/>
  <path id="Path_10814" data-name="Path 10814" d="M18.545,27.327h-1.18V24.378a2.949,2.949,0,0,0-2.949-2.949H10.878A2.949,2.949,0,0,0,7.93,24.378v2.949H6.75V24.378a4.128,4.128,0,0,1,4.128-4.128h3.539a4.128,4.128,0,0,1,4.128,4.128Z" transform="translate(-6.75 -10.814)" fill="#1e73be"/>
</svg>
